# xmcd
#
# Track frame offsets: 
#        150
#        15411
#        41248
#        56922
#        78438
#        110762
#        131461
#        158695
#        173609
#        190543
#        209177
#
# Disc length: 3067 seconds
#
# Revision: 0
# Processed by: cddbd v1.5.2PL0 Copyright (c) Steve Scherf et al.
# Submitted via: ExactAudioCopy v0.99pb5
#
DISCID=920bf90b
DTITLE=ДиДюЛя - Легенда
DYEAR=2004
DGENRE=A Cappella
TTITLE0=Мечта
TTITLE1=Сердце обжигая
TTITLE2=Дорогой дерзких
TTITLE3=Голос сфер
TTITLE4=Парящий в облаках
TTITLE5=Кометы хвост
TTITLE6=Великий храм
TTITLE7=Легенда
TTITLE8=Уличные cтрасти
TTITLE9=Осень-Август
TTITLE10=Путь домой
EXTD=
EXTT0=
EXTT1=
EXTT2=
EXTT3=
EXTT4=
EXTT5=
EXTT6=
EXTT7=
EXTT8=
EXTT9=
EXTT10=
PLAYORDER=
